<svg width="20" height="19" viewBox="0 0 20 19" fill="none" xmlns="http://www.w3.org/2000/svg">
<g clip-path="url(#clip0_4_1606)">
<path d="M17.752 14.807C17.4646 15.4708 17.1245 16.0818 16.7305 16.6436C16.1933 17.4094 15.7535 17.9395 15.4146 18.2339C14.8892 18.7171 14.3262 18.9645 13.7234 18.9786C13.2906 18.9786 12.7687 18.8555 12.1612 18.6057C11.5517 18.357 10.9916 18.2339 10.4794 18.2339C9.94228 18.2339 9.3662 18.357 8.75001 18.6057C8.13288 18.8555 7.63573 18.9857 7.25563 18.9986C6.67755 19.0232 6.10136 18.7687 5.52621 18.2339C5.15913 17.9137 4.69997 17.3648 4.14993 16.5873C3.55978 15.7569 3.07459 14.7941 2.69448 13.6963C2.2874 12.5106 2.08334 11.3624 2.08334 10.2508C2.08334 8.97753 2.35848 7.87932 2.90957 6.95902C3.34269 6.2198 3.91889 5.63668 4.64004 5.20861C5.3612 4.78054 6.14041 4.56239 6.97955 4.54844C7.4387 4.54844 8.04082 4.69046 8.78907 4.96959C9.5352 5.24966 10.0143 5.39168 10.2243 5.39168C10.3814 5.39168 10.9136 5.22561 11.8158 4.89453C12.669 4.58749 13.3891 4.46036 13.9791 4.51044C15.5776 4.63945 16.7785 5.26959 17.5772 6.40487C16.1476 7.2711 15.4404 8.48437 15.4545 10.0408C15.4674 11.2531 15.9072 12.262 16.7715 13.063C17.1632 13.4348 17.6007 13.7221 18.0874 13.9262C17.9818 14.2323 17.8704 14.5255 17.752 14.807ZM14.0858 0.380291C14.0858 1.33051 13.7386 2.21772 13.0467 3.03892C12.2117 4.01516 11.2016 4.57928 10.1064 4.49027C10.0924 4.37627 10.0843 4.25629 10.0843 4.13022C10.0843 3.21801 10.4814 2.24177 11.1866 1.44356C11.5387 1.03941 11.9865 0.703364 12.5295 0.435295C13.0713 0.171227 13.5838 0.0251911 14.0659 0.000183105C14.0799 0.127212 14.0858 0.254249 14.0858 0.380279V0.380291Z" fill="black"/>
</g>
<defs>
<clipPath id="clip0_4_1606">
<rect width="19" height="19" fill="white" transform="translate(0.5)"/>
</clipPath>
</defs>
</svg>
