<svg width="20" height="19" viewBox="0 0 20 19" fill="none" xmlns="http://www.w3.org/2000/svg">
<g clip-path="url(#clip0_4_1603)">
<path d="M19.3148 9.71882C19.3148 9.07304 19.2624 8.42376 19.1507 7.78845H10.19V11.4467H15.3214C15.1084 12.6266 14.4243 13.6703 13.4224 14.3336V16.7072H16.4838C18.2815 15.0526 19.3148 12.6091 19.3148 9.71882Z" fill="#4285F4"/>
<path d="M10.19 19.0006C12.7522 19.0006 14.9129 18.1594 16.4873 16.7072L13.4259 14.3335C12.5742 14.913 11.4746 15.2411 10.1935 15.2411C7.71507 15.2411 5.61365 13.5691 4.85966 11.321H1.70055V13.768C3.31327 16.976 6.59804 19.0006 10.19 19.0006Z" fill="#34A853"/>
<path d="M4.85618 11.3211C4.45824 10.1412 4.45824 8.86362 4.85618 7.68375V5.23676H1.70057C0.353148 7.92112 0.353148 11.0837 1.70057 13.7681L4.85618 11.3211Z" fill="#FBBC04"/>
<path d="M10.19 3.76015C11.5444 3.7392 12.8534 4.24885 13.8343 5.18436L16.5466 2.47207C14.8292 0.859358 12.5497 -0.0272856 10.19 0.000640194C6.59804 0.000640194 3.31327 2.02526 1.70055 5.23672L4.85617 7.68372C5.60667 5.4322 7.71158 3.76015 10.19 3.76015Z" fill="#EA4335"/>
</g>
<defs>
<clipPath id="clip0_4_1603">
<rect width="19" height="19" fill="white" transform="translate(0.5)"/>
</clipPath>
</defs>
</svg>
