<svg width="19" height="17" viewBox="0 0 19 17" fill="none" xmlns="http://www.w3.org/2000/svg">
<path d="M2.375 1.375L5.21642 4.21642M16.625 15.625L13.7839 12.7839M10.9843 13.9028C10.5036 13.994 10.0076 14.0417 9.50037 14.0417C5.95556 14.0417 2.95491 11.7119 1.94612 8.49997C2.22075 7.6256 2.64299 6.81661 3.18364 6.10219M7.82063 6.82062C8.25042 6.39083 8.84417 6.125 9.50001 6.125C10.8117 6.125 11.875 7.18832 11.875 8.5C11.875 9.15584 11.6092 9.74959 11.1794 10.1794M7.82063 6.82062L11.1794 10.1794M7.82063 6.82062L5.21642 4.21642M11.1794 10.1794L5.21642 4.21642M11.1794 10.1794L13.7839 12.7839M5.21642 4.21642C6.45128 3.4203 7.92187 2.95833 9.50035 2.95833C13.0452 2.95833 16.0458 5.28814 17.0546 8.50003C16.495 10.2818 15.3223 11.7922 13.7839 12.7839" stroke="#040308" stroke-opacity="0.4" stroke-width="2" stroke-linecap="round" stroke-linejoin="round"/>
</svg>
